<svg width="103.59948" height="91" xmlns="http://www.w3.org/2000/svg" class="iconAboveSlogan">
 <!---->
 <!---->
 <!---->
 <defs>
  <linearGradient y2="0%" x2="100%" y1="0%" x1="0%" id="626ce206-7005-438b-ac0d-1a6f71606e21" gradientTransform="rotate(25)">
   <stop stop-color="rgb(32, 72, 79)" offset="0%"/>
   <stop stop-color="rgb(78, 155, 171)" offset="100%"/>
  </linearGradient>
 </defs>
 <!---->
 <g>
  <title>Layer 1</title>
  <g fill="url(#626ce206-7005-438b-ac0d-1a6f71606e21)" transform="matrix(1.04397 0 0 1.04397 162.912 -5.22387)" id="93a36818-8c7b-4ae0-97a9-5e0caaef531b">
   <circle id="svg_2" r="0.942" cy="17.20847" cx="-78.03548"/>
   <path id="svg_3" d="m-58.10248,82.54947l0,-0.055a2.469,2.469 0 0 0 -2.47,-2.47l-4.323,0c-0.215,-1.81 -2.059,-4.009 -4.375,-4.137l-2.979,-5.237l-5.487,-15.76c0.229,-1.856 0.544,-3.899 0.544,-5.998c0,-5.553 -0.142,-10.483 -2.003,-13.606c0,0 -1.005,-1.995 -1.018,-3.258c-0.029,-2.945 1.355,-4.301 1.771,-4.301c4.138,0 7.481,-2.572 7.481,-5.744a4.53,4.53 0 0 0 -0.469,-1.965l-1.498,-0.873a3.425,3.425 0 0 1 -1.643,-2.328a1.168,1.168 0 0 1 -0.065,-0.576c0.002,-0.02 0,-0.038 0.003,-0.059a3.283,3.283 0 0 1 0.024,-0.442c-0.022,-1.716 -1.267,-2.833 -1.938,-3.312c-0.069,-0.045 -0.135,-0.095 -0.204,-0.138l-0.003,-0.003c-1.328,-0.816 -2.942,-1.377 -4.709,-1.589l0.443,-5.368l-7.131,6.338c-2.102,0.949 -4.339,3.638 -4.763,6.176s-0.108,0.643 -0.108,0.643l-0.904,5.426a11.3,11.3 0 0 1 -5.006,7.631c-6.041,-1.381 -14.369,1.068 -21.538,6.92c-4.037,3.296 -7.09,7.167 -8.963,11.027a15.637,15.637 0 0 0 -1.101,2.648a18.701,18.701 0 0 0 -0.954,4.293c-4.497,-3.732 -10.091,-8.34 -14.046,-11.484c-6.518,-5.179 -4.117,-9.015 -3.602,-9.691a2.964,2.964 0 0 0 -4.574,-3.772c-0.266,0.324 -2.588,3.283 -2.121,7.697c0.393,3.733 2.615,7.235 6.607,10.406c6.302,5.01 16.836,13.798 20.285,16.682c0.197,0.367 0.404,0.73 0.627,1.09c2.729,4.402 5.951,7.462 9.46,8.695c1.333,0.657 2.497,1.402 3.528,1.78l5.549,2.188l-14.657,0a2.47,2.47 0 0 0 -2.47,2.47l0,0.062l57.472,0l0,0.481l-57.472,0l0,4.892a2.47,2.47 0 0 0 2.47,2.469l5.672,0c0.212,0.644 1.541,1.142 3.168,1.142s2.957,-0.498 3.169,-1.142l40.027,0c0.212,0.644 1.542,1.142 3.169,1.142s2.957,-0.498 3.169,-1.142l5.486,0a2.47,2.47 0 0 0 2.47,-2.469l0,-1.181l-8.528,0l0,-0.494l8.528,0l0,-0.74l-8.528,0l0,-0.494l8.528,0l0,-0.741l-8.528,0l0,-0.495l8.528,0l0,-0.739l-8.528,0l0,-0.495l8.528,0zm-19.932,-66.634a1.293,1.293 0 1 1 0.001,2.587a1.293,1.293 0 0 1 -0.001,-2.587zm-22.882,61.807c-0.851,-1.097 -2.268,-1.948 -3.875,-1.948c-0.838,0 -1.617,0.131 -2.296,0.474c-0.36,0.182 -0.603,-0.049 -0.444,-0.432c0.626,-1.52 0.961,-3.482 1.736,-5.27c0.041,-0.095 0.068,-0.199 0.106,-0.293c0.396,-0.994 0.623,-2.017 0.698,-3.034c0.003,-0.055 0.002,-0.111 0.005,-0.166c-1.394,-8.814 -5.835,-10.471 -5.883,-10.488a0.372,0.372 0 1 1 0.238,-0.703c0.193,0.064 4.033,1.448 5.857,8.525c1.216,-0.614 3.372,-1.766 6.416,-3.616a16.48,16.48 0 0 1 3.173,-1.55c5.006,-1.771 8.509,0.586 10.269,2.321c0.116,-0.173 0.242,-0.338 0.363,-0.509c-2.194,-4.206 -4.891,-8.984 -5.783,-9.476a0.37,0.37 0 0 1 -0.147,-0.502a0.381,0.381 0 0 1 0.504,-0.147c0.98,0.538 3.128,4.237 4.925,7.582l10.814,21.104a5.301,5.301 0 0 0 -0.024,0.429l-25.845,0c-0.065,-0.834 -0.347,-1.706 -0.807,-2.301z"/>
  </g>
  <g transform="matrix(1.3180106098263138,0,0,1.3180106098263138,54.07484990428091,198.22771299814605)" fill="#12262A" id="6ecaf054-2097-4586-85b8-409e3a37d29e">
   <path id="svg_4" d="m4.31,3.64l0,0q2.61,0 3.49,2.04l0,0l-0.6,0.49l0,0q-0.35,-0.99 -1.05,-1.44l0,0l0,0q-0.69,-0.45 -1.82,-0.45l0,0l0,0q-0.82,0 -1.42,0.26l0,0l0,0q-0.6,0.25 -0.91,0.68l0,0l0,0q-0.32,0.44 -0.32,0.98l0,0l0,0q0,0.53 0.27,0.88l0,0l0,0q0.26,0.35 0.9,0.6l0,0l0,0q0.64,0.24 1.76,0.44l0,0l0,0q1.8,0.31 2.56,0.9l0,0l0,0q0.75,0.58 0.75,1.62l0,0l0,0q0,0.74 -0.43,1.32l0,0l0,0q-0.43,0.57 -1.22,0.88l0,0l0,0q-0.8,0.32 -1.82,0.32l0,0l0,0q-1.45,0 -2.45,-0.58l0,0l0,0q-1.01,-0.58 -1.37,-1.63l0,0l0.62,-0.48l0,0q0.28,1 1.12,1.52l0,0l0,0q0.85,0.53 2.1,0.53l0,0l0,0q1.2,0 1.96,-0.49l0,0l0,0q0.77,-0.49 0.77,-1.35l0,0l0,0q0,-0.74 -0.63,-1.17l0,0l0,0q-0.62,-0.44 -2.16,-0.7l0,0l0,0q-1.3,-0.23 -2.06,-0.55l0,0l0,0q-0.75,-0.32 -1.08,-0.8l0,0l0,0q-0.33,-0.47 -0.33,-1.19l0,0l0,0q0,-0.71 0.41,-1.31l0,0l0,0q0.41,-0.61 1.18,-0.96l0,0l0,0q0.76,-0.36 1.78,-0.36l0,0zm17.28,2.9l-1.86,6.48l-0.87,0l-2.89,-9.24l0.76,0l2.56,8.67l2.42,-8.67l0.82,0l2.42,8.68l2.59,-8.68l0.71,0l-2.88,9.24l-0.87,0l-1.86,-6.48l-0.52,-2l-0.01,0l-0.52,2zm16.24,5.84l5.84,0l0,0.64l-6.54,0l0,-9.24l6.31,0l0,0.64l-5.61,0l0,3.57l4.44,0l0,0.66l-4.44,0l0,3.73zm21.15,0.64l-1.16,-2.9l-4.42,0l-1.15,2.9l-0.74,0l3.69,-9.24l0.83,0l3.69,9.24l-0.74,0zm-5.32,-3.54l3.91,0l-1.61,-4.03l-0.34,-0.98l-0.01,0l-0.34,0.95l-1.61,4.06zm17.85,-5.7l0,0q1.44,0 2.29,0.72l0,0l0,0q0.85,0.72 0.85,1.98l0,0l0,0q0,1.26 -0.85,1.99l0,0l0,0q-0.85,0.73 -2.29,0.73l0,0l-2.36,0l0,3.82l-0.7,0l0,-9.24l3.06,0zm-0.08,4.76l0,0q1.2,0 1.84,-0.53l0,0l0,0q0.64,-0.53 0.64,-1.53l0,0l0,0q0,-0.98 -0.64,-1.52l0,0l0,0q-0.64,-0.54 -1.84,-0.54l0,0l-2.28,0l0,4.12l2.28,0zm29.08,-4.76l-3.28,5.64l0,3.6l-0.7,0l0,-3.6l-3.28,-5.64l0.83,0l2.8,4.91l2.8,-4.91l0.83,0zm11.97,-0.14l0,0q1.3,0 2.26,0.58l0,0l0,0q0.96,0.58 1.47,1.65l0,0l0,0q0.52,1.07 0.52,2.53l0,0l0,0q0,1.46 -0.52,2.53l0,0l0,0q-0.51,1.07 -1.47,1.65l0,0l0,0q-0.96,0.58 -2.26,0.58l0,0l0,0q-1.31,0 -2.26,-0.58l0,0l0,0q-0.96,-0.58 -1.48,-1.65l0,0l0,0q-0.52,-1.07 -0.52,-2.53l0,0l0,0q0,-1.46 0.52,-2.53l0,0l0,0q0.52,-1.07 1.48,-1.65l0,0l0,0q0.95,-0.58 2.26,-0.58l0,0zm0,0.64l0,0q-1.08,0 -1.87,0.5l0,0l0,0q-0.79,0.5 -1.22,1.43l0,0l0,0q-0.43,0.93 -0.43,2.19l0,0l0,0q0,1.26 0.43,2.19l0,0l0,0q0.43,0.93 1.22,1.43l0,0l0,0q0.79,0.5 1.87,0.5l0,0l0,0q1.07,0 1.87,-0.5l0,0l0,0q0.8,-0.5 1.23,-1.43l0,0l0,0q0.42,-0.93 0.42,-2.19l0,0l0,0q0,-1.26 -0.42,-2.19l0,0l0,0q-0.43,-0.93 -1.23,-1.43l0,0l0,0q-0.8,-0.5 -1.87,-0.5l0,0zm20.59,-0.5l0,5.87l0,0q0,1.7 -0.92,2.61l0,0l0,0q-0.93,0.9 -2.64,0.9l0,0l0,0q-1.7,0 -2.63,-0.9l0,0l0,0q-0.94,-0.91 -0.94,-2.61l0,0l0,-5.87l0.7,0l0,5.73l0,0q0,1.48 0.73,2.24l0,0l0,0q0.73,0.77 2.14,0.77l0,0l0,0q1.4,0 2.13,-0.77l0,0l0,0q0.73,-0.76 0.73,-2.24l0,0l0,-5.73l0.7,0zm16.74,9.24l-0.82,0l-2.65,-4l-0.04,0l-2.73,0l0,4l-0.7,0l0,-9.24l3.43,0l0,0q1.39,0 2.21,0.7l0,0l0,0q0.81,0.7 0.81,1.92l0,0l0,0q0,1.01 -0.58,1.67l0,0l0,0q-0.59,0.67 -1.61,0.86l0,0l2.68,4.09zm-6.24,-8.6l0,3.94l2.72,0l0,0q1.12,0 1.71,-0.51l0,0l0,0q0.6,-0.5 0.6,-1.45l0,0l0,0q0,-0.95 -0.6,-1.47l0,0l0,0q-0.59,-0.51 -1.71,-0.51l0,0l-2.72,0zm35.24,-0.64l0,9.24l-0.67,0l0,-6.89l0.08,-1.68l-0.01,0l-3.38,8.57l-0.64,0l-3.38,-8.57l-0.01,0l0.08,1.68l0,6.89l-0.67,0l0,-9.24l1.05,0l2.79,7l0.46,1.41l0.01,0l0.45,-1.4l2.79,-7.01l1.05,0zm13.58,-0.14l0,0q1.3,0 2.26,0.58l0,0l0,0q0.96,0.58 1.48,1.65l0,0l0,0q0.51,1.07 0.51,2.53l0,0l0,0q0,1.46 -0.51,2.53l0,0l0,0q-0.52,1.07 -1.48,1.65l0,0l0,0q-0.96,0.58 -2.26,0.58l0,0l0,0q-1.3,0 -2.26,-0.58l0,0l0,0q-0.96,-0.58 -1.48,-1.65l0,0l0,0q-0.52,-1.07 -0.52,-2.53l0,0l0,0q0,-1.46 0.52,-2.53l0,0l0,0q0.52,-1.07 1.48,-1.65l0,0l0,0q0.96,-0.58 2.26,-0.58l0,0zm0,0.64l0,0q-1.08,0 -1.87,0.5l0,0l0,0q-0.79,0.5 -1.22,1.43l0,0l0,0q-0.43,0.93 -0.43,2.19l0,0l0,0q0,1.26 0.43,2.19l0,0l0,0q0.43,0.93 1.22,1.43l0,0l0,0q0.79,0.5 1.87,0.5l0,0l0,0q1.08,0 1.87,-0.5l0,0l0,0q0.8,-0.5 1.23,-1.43l0,0l0,0q0.43,-0.93 0.43,-2.19l0,0l0,0q0,-1.26 -0.43,-2.19l0,0l0,0q-0.43,-0.93 -1.23,-1.43l0,0l0,0q-0.79,-0.5 -1.87,-0.5l0,0zm20.68,-0.5l0,9.24l-0.87,0l-4.9,-7.25l-0.69,-1.23l-0.01,0l0.04,1.16l0,7.32l-0.67,0l0,-9.24l0.88,0l4.89,7.24l0.7,1.24l-0.03,-1.16l0,-7.32l0.66,0zm10.61,8.6l5.84,0l0,0.64l-6.54,0l0,-9.24l6.31,0l0,0.64l-5.61,0l0,3.57l4.44,0l0,0.66l-4.44,0l0,3.73zm20.84,-8.6l-3.27,5.64l0,3.6l-0.7,0l0,-3.6l-3.28,-5.64l0.83,0l2.8,4.91l2.8,-4.91l0.82,0z"/>
  </g>
 </g>
</svg>